<svg width="26" height="27" viewBox="0 0 26 27" fill="none" xmlns="http://www.w3.org/2000/svg">
<path d="M1.00419 17.4605V10.7645M20.819 13.5723L15.7023 17.1931C14.8767 17.7774 13.9097 18.0888 12.9209 18.0888C11.9321 18.0888 10.9651 17.7774 10.1395 17.1931L5.02276 13.5737V20.4434C5.02276 21.1152 5.17314 21.7829 5.57879 22.2945C6.52278 23.4847 8.75574 25.538 12.9209 25.538C17.0861 25.538 19.319 23.4847 20.263 22.2945C20.6674 21.7829 20.819 21.1152 20.819 20.4434V13.5737L23.953 11.3562C24.1626 11.2078 24.3347 11.0059 24.4537 10.7686C24.5727 10.5313 24.635 10.2659 24.635 9.99633C24.635 9.72676 24.5727 9.4614 24.4537 9.22406C24.3347 8.98673 24.1626 8.78484 23.953 8.6365L15.701 2.7982C14.8756 2.21421 13.9088 1.90295 12.9203 1.90295C11.9318 1.90295 10.965 2.21421 10.1395 2.7982L1.56907 8.86314C1.38988 8.98827 1.24352 9.16062 1.14397 9.36375C1.04442 9.56687 0.994995 9.79536 1.0004 10.0248M5.02276 13.5723L1.56907 11.1309C1.3971 11.0107 1.25528 10.847 1.15612 10.6541C1.05695 10.4612 1.00347 10.2451 1.0004 10.0248M1.0004 10.0248V10.7658" stroke="black" stroke-width="1.89555" stroke-linecap="round" stroke-linejoin="round"/>
</svg>
