<svg width="48" height="49" viewBox="0 0 48 49" fill="none" xmlns="http://www.w3.org/2000/svg">
<rect y="0.489746" width="48" height="48" rx="24" fill="#27272A"/>
<path opacity="0.8" fill-rule="evenodd" clip-rule="evenodd" d="M14.9436 23.2734C20.5808 20.8037 24.3397 19.1756 26.2206 18.3889C31.5907 16.1429 32.7065 15.7528 33.4338 15.7399C33.5938 15.737 33.9514 15.7769 34.1831 15.966C34.3787 16.1256 34.4326 16.3412 34.4583 16.4925C34.4841 16.6439 34.5162 16.9886 34.4907 17.258C34.1997 20.3326 32.9405 27.7939 32.2999 31.2376C32.0288 32.6947 31.4951 33.1833 30.9784 33.2311C29.8554 33.335 29.0027 32.4848 27.9151 31.7679C26.2132 30.6461 25.2517 29.9478 23.5997 28.8531C21.6906 27.588 22.9282 26.8927 24.0162 25.7563C24.301 25.4589 29.2486 20.9336 29.3444 20.5231C29.3564 20.4718 29.3675 20.2804 29.2544 20.1793C29.1414 20.0783 28.9745 20.1128 28.8541 20.1403C28.6834 20.1793 25.9646 21.9863 20.6976 25.5614C19.9259 26.0942 19.2269 26.3539 18.6006 26.3403C17.9102 26.3253 16.582 25.9477 15.5947 25.625C14.3837 25.2292 13.4213 25.0199 13.5051 24.3477C13.5487 23.9975 14.0283 23.6394 14.9436 23.2734Z" fill="white"/>
</svg>
