<svg width="23" height="16" viewBox="0 0 23 16" fill="none" xmlns="http://www.w3.org/2000/svg">
<path d="M21.666 2.65891C20.8415 2.24784 19.8467 2.29157 19.0693 2.77204L16.0045 4.66294C15.5503 2.13781 13.1963 0.203125 10.35 0.203125H5.75C2.57945 0.203125 0 2.59799 0 5.54167V9.8125C0 12.7562 2.57945 15.151 5.75 15.151H10.35C13.1963 15.151 15.5491 13.2153 16.0045 10.6912L19.0693 12.5821C19.4936 12.8437 19.9801 12.975 20.47 12.975C20.8794 12.975 21.29 12.8821 21.666 12.6953C22.4894 12.2863 23 11.493 23 10.6261V4.72915C23 3.86111 22.4894 3.06784 21.666 2.65891ZM13.8 9.8125C13.8 11.5785 12.2521 13.0156 10.35 13.0156H5.75C3.8479 13.0156 2.3 11.5785 2.3 9.8125V5.54167C2.3 3.77568 3.8479 2.33854 5.75 2.33854H10.35C12.2521 2.33854 13.8 3.77568 13.8 5.54167V9.8125ZM20.7 10.6261C20.7 10.7104 20.6598 10.7745 20.5793 10.814C20.4976 10.8556 20.4171 10.8503 20.3424 10.8033L16.1 8.18539V7.16877L20.3424 4.55086C20.4171 4.50388 20.4976 4.49853 20.5793 4.54017C20.6598 4.57967 20.7 4.64376 20.7 4.72811V10.6261Z" fill="black"/>
</svg>
