<svg width="48" height="49" viewBox="0 0 48 49" fill="none" xmlns="http://www.w3.org/2000/svg">
<rect y="0.489746" width="48" height="48" rx="24" fill="#27272A"/>
<path opacity="0.8" fill-rule="evenodd" clip-rule="evenodd" d="M28.5436 26.4584C28.2969 26.3355 27.0837 25.7414 26.8575 25.6595C26.6314 25.5775 26.4669 25.5366 26.3024 25.7824C26.1379 26.0282 25.665 26.5813 25.5211 26.7453C25.3772 26.9091 25.2333 26.9297 24.9865 26.8067C24.7397 26.6838 23.9447 26.4245 23.0022 25.5878C22.2687 24.9367 21.7735 24.1325 21.6296 23.8867C21.4856 23.6408 21.6142 23.508 21.7378 23.3855C21.8487 23.2755 21.9845 23.0987 22.1079 22.9553C22.2313 22.8119 22.2724 22.7095 22.3546 22.5456C22.4369 22.3817 22.3958 22.2383 22.334 22.1154C22.2724 21.9925 21.7789 20.7838 21.5733 20.2921C21.373 19.8133 21.1696 19.8781 21.0181 19.8706C20.8744 19.8634 20.7097 19.8619 20.5452 19.8619C20.3807 19.8619 20.1134 19.9234 19.8872 20.1692C19.661 20.415 19.0236 21.0092 19.0236 22.2178C19.0236 23.4265 19.9078 24.5942 20.0312 24.7581C20.1545 24.922 21.7711 27.4024 24.2463 28.4661C24.835 28.7191 25.2946 28.8701 25.6529 28.9834C26.2441 29.1702 26.782 29.1439 27.2071 29.0807C27.6812 29.0102 28.667 28.4866 28.8726 27.913C29.0782 27.3393 29.0782 26.8477 29.0165 26.7453C28.9549 26.6428 28.7904 26.5813 28.5436 26.4584ZM24.0415 32.5763H24.0382C22.5654 32.5757 21.1208 32.1819 19.8606 31.4377L19.5609 31.2606L16.4544 32.0716L17.2836 29.0573L17.0884 28.7483C16.2668 27.4477 15.8329 25.9445 15.8335 24.4011C15.8353 19.8972 19.5174 16.233 24.0448 16.233C26.2371 16.2339 28.2979 17.0847 29.8476 18.6287C31.3973 20.1727 32.2502 22.225 32.2494 24.4077C32.2475 28.9118 28.5655 32.5763 24.0415 32.5763ZM31.027 17.4555C29.1626 15.5978 26.6831 14.5743 24.0414 14.5732C18.5984 14.5732 14.1684 18.9817 14.1662 24.4005C14.1655 26.1326 14.6202 27.8235 15.4843 29.3138L14.0834 34.4066L19.3184 33.04C20.7608 33.8229 22.3847 34.2355 24.0375 34.2362H24.0415C29.484 34.2362 33.9145 29.8271 33.9167 24.4083C33.9177 21.7823 32.8915 19.3131 31.027 17.4555Z" fill="white"/>
</svg>
