<svg width="21" height="20" viewBox="0 0 21 20" fill="none" xmlns="http://www.w3.org/2000/svg">
<g id="CalendarWeekFill" clip-path="url(#clip0_711_2257)">
<path id="Vector" d="M5.76312 0.785438C5.76312 0.624783 5.6993 0.470708 5.5857 0.357108C5.4721 0.243507 5.31802 0.179688 5.15737 0.179688C4.99671 0.179688 4.84264 0.243507 4.72904 0.357108C4.61544 0.470708 4.55162 0.624783 4.55162 0.785438V1.39119H3.34012C2.6975 1.39119 2.0812 1.64647 1.6268 2.10087C1.17239 2.55527 0.917114 3.17157 0.917114 3.81419L0.917114 5.02569H20.3011V3.81419C20.3011 3.17157 20.0458 2.55527 19.5914 2.10087C19.137 1.64647 18.5207 1.39119 17.8781 1.39119H16.6666V0.785438C16.6666 0.624783 16.6028 0.470708 16.4892 0.357108C16.3756 0.243507 16.2215 0.179688 16.0609 0.179688C15.9002 0.179688 15.7461 0.243507 15.6325 0.357108C15.5189 0.470708 15.4551 0.624783 15.4551 0.785438V1.39119H5.76312V0.785438ZM20.3011 17.1407V6.23719H0.917114V17.1407C0.917114 17.7833 1.17239 18.3996 1.6268 18.854C2.0812 19.3084 2.6975 19.5637 3.34012 19.5637H17.8781C18.5207 19.5637 19.137 19.3084 19.5914 18.854C20.0458 18.3996 20.3011 17.7833 20.3011 17.1407ZM12.4264 8.66019H13.6379C13.7985 8.66019 13.9526 8.72401 14.0662 8.83761C14.1798 8.95121 14.2436 9.10529 14.2436 9.26594V10.4774C14.2436 10.6381 14.1798 10.7922 14.0662 10.9058C13.9526 11.0194 13.7985 11.0832 13.6379 11.0832H12.4264C12.2657 11.0832 12.1116 11.0194 11.998 10.9058C11.8844 10.7922 11.8206 10.6381 11.8206 10.4774V9.26594C11.8206 9.10529 11.8844 8.95121 11.998 8.83761C12.1116 8.72401 12.2657 8.66019 12.4264 8.66019ZM16.0609 8.66019H17.2724C17.433 8.66019 17.5871 8.72401 17.7007 8.83761C17.8143 8.95121 17.8781 9.10529 17.8781 9.26594V10.4774C17.8781 10.6381 17.8143 10.7922 17.7007 10.9058C17.5871 11.0194 17.433 11.0832 17.2724 11.0832H16.0609C15.9002 11.0832 15.7461 11.0194 15.6325 10.9058C15.5189 10.7922 15.4551 10.6381 15.4551 10.4774V9.26594C15.4551 9.10529 15.5189 8.95121 15.6325 8.83761C15.7461 8.72401 15.9002 8.66019 16.0609 8.66019ZM3.34012 12.9004C3.34012 12.7398 3.40394 12.5857 3.51754 12.4721C3.63114 12.3585 3.78521 12.2947 3.94587 12.2947H5.15737C5.31802 12.2947 5.4721 12.3585 5.5857 12.4721C5.6993 12.5857 5.76312 12.7398 5.76312 12.9004V14.1119C5.76312 14.2726 5.6993 14.4267 5.5857 14.5403C5.4721 14.6539 5.31802 14.7177 5.15737 14.7177H3.94587C3.78521 14.7177 3.63114 14.6539 3.51754 14.5403C3.40394 14.4267 3.34012 14.2726 3.34012 14.1119V12.9004ZM7.58037 12.2947H8.79187C8.95253 12.2947 9.1066 12.3585 9.2202 12.4721C9.3338 12.5857 9.39762 12.7398 9.39762 12.9004V14.1119C9.39762 14.2726 9.3338 14.4267 9.2202 14.5403C9.1066 14.6539 8.95253 14.7177 8.79187 14.7177H7.58037C7.41971 14.7177 7.26564 14.6539 7.15204 14.5403C7.03844 14.4267 6.97462 14.2726 6.97462 14.1119V12.9004C6.97462 12.7398 7.03844 12.5857 7.15204 12.4721C7.26564 12.3585 7.41971 12.2947 7.58037 12.2947Z" fill="#D3D2D2"/>
</g>
<defs>
<clipPath id="clip0_711_2257">
<rect width="19.384" height="19.384" fill="white" transform="translate(0.917114 0.179688)"/>
</clipPath>
</defs>
</svg>
