<svg width="32" height="32" viewBox="0 0 32 32" fill="none" xmlns="http://www.w3.org/2000/svg">
<g id="vuesax/bold/timer">
<g id="timer">
<path id="Vector" d="M15.9996 6.19922C9.62644 6.19922 4.43994 11.3857 4.43994 17.7588C4.43994 24.132 9.62644 29.3318 15.9996 29.3318C22.3727 29.3318 27.5592 24.1453 27.5592 17.7722C27.5592 11.399 22.3727 6.19922 15.9996 6.19922ZM16.9995 17.3322C16.9995 17.8788 16.5462 18.3321 15.9996 18.3321C15.4529 18.3321 14.9996 17.8788 14.9996 17.3322V10.6657C14.9996 10.1191 15.4529 9.66577 15.9996 9.66577C16.5462 9.66577 16.9995 10.1191 16.9995 10.6657V17.3322Z" fill="#F57F20"/>
<path id="Vector_2" d="M19.8527 4.60026H12.1462C11.6129 4.60026 11.1863 4.17361 11.1863 3.64029C11.1863 3.10698 11.6129 2.66699 12.1462 2.66699H19.8527C20.386 2.66699 20.8126 3.09364 20.8126 3.62696C20.8126 4.16028 20.386 4.60026 19.8527 4.60026Z" fill="#F57F20"/>
</g>
</g>
</svg>
