<svg width="20" height="21" viewBox="0 0 20 21" fill="none" xmlns="http://www.w3.org/2000/svg">
<g id="ClockFill" clip-path="url(#clip0_711_2314)">
<path id="Vector" d="M19.5206 10.6764C19.5206 13.2469 18.4995 15.7121 16.6819 17.5297C14.8643 19.3473 12.3991 20.3684 9.8286 20.3684C7.25812 20.3684 4.79292 19.3473 2.97532 17.5297C1.15772 15.7121 0.136597 13.2469 0.136597 10.6764C0.136597 8.1059 1.15772 5.6407 2.97532 3.8231C4.79292 2.00549 7.25812 0.984375 9.8286 0.984375C12.3991 0.984375 14.8643 2.00549 16.6819 3.8231C18.4995 5.6407 19.5206 8.1059 19.5206 10.6764ZM9.8286 5.22463C9.8286 5.06397 9.76478 4.9099 9.65118 4.7963C9.53758 4.6827 9.38351 4.61888 9.22285 4.61888C9.0622 4.61888 8.90812 4.6827 8.79452 4.7963C8.68092 4.9099 8.6171 5.06397 8.6171 5.22463V11.8879C8.61714 11.9947 8.64539 12.0995 8.69901 12.1919C8.75262 12.2842 8.82969 12.3607 8.9224 12.4137L13.1627 14.8367C13.3018 14.9119 13.4649 14.9297 13.6169 14.8863C13.769 14.8428 13.8981 14.7416 13.9766 14.6043C14.0551 14.467 14.0767 14.3044 14.0369 14.1513C13.9971 13.9982 13.899 13.8668 13.7636 13.7851L9.8286 11.5365V5.22463Z" fill="#D3D2D2"/>
</g>
<defs>
<clipPath id="clip0_711_2314">
<rect width="19.384" height="19.384" fill="white" transform="translate(0.136597 0.984375)"/>
</clipPath>
</defs>
</svg>
